<?xml version="1.0" encoding="UTF-8" standalone="no"?>
<svg
   height="16"
   viewBox="0 0 16 16"
   width="16"
   version="1.1"
   id="svg4"
   sodipodi:docname="world2.svg"
   inkscape:version="1.2 (dc2aedaf03, 2022-05-15)"
   xml:space="preserve"
   xmlns:inkscape="http://www.inkscape.org/namespaces/inkscape"
   xmlns:sodipodi="http://sodipodi.sourceforge.net/DTD/sodipodi-0.dtd"
   xmlns="http://www.w3.org/2000/svg"
   xmlns:svg="http://www.w3.org/2000/svg"><defs
     id="defs8" /><sodipodi:namedview
     id="namedview6"
     pagecolor="#505050"
     bordercolor="#ffffff"
     borderopacity="1"
     inkscape:showpageshadow="0"
     inkscape:pageopacity="0"
     inkscape:pagecheckerboard="1"
     inkscape:deskcolor="#505050"
     showgrid="true"
     inkscape:zoom="45.254834"
     inkscape:cx="2.541165"
     inkscape:cy="9.7890095"
     inkscape:window-width="1920"
     inkscape:window-height="1009"
     inkscape:window-x="-8"
     inkscape:window-y="-8"
     inkscape:window-maximized="1"
     inkscape:current-layer="svg4"><inkscape:grid
       type="xygrid"
       id="grid3462" /></sodipodi:namedview><path
     id="path2-9"
     style="fill:#e0e0e0;fill-opacity:1"
     d="M 1,6 C 0,6 0,7 0,7 v 8 c 0,0.553998 0.4460012,1 1,1 h 14 c 0.553998,0 1,-0.446002 1,-1 v -4 c 0,-0.553999 -0.446002,-1 -1,-1 H 7 C 6,10 2,6 1,6 Z m 1,4 2,2 h 6 c 1,0 3,1 3,2 0,0 0,1 -1,1 H 2 C 1,15 1,14 1,14 v -3 c 0,0 0,-1 1,-1 z M 7,1 C 6.4460012,1 6,1.4460012 6,2 v 4.0000003 c 0,0.553998 0.4460012,1 1,1 h 5 c 0.553998,0 1,-0.446002 1,-1 V 2 C 13,1.4460012 12.553998,1 12,1 Z m 1,2 c 1,0 3,0.9999995 3,1.9999995 V 5 c 0,0.553998 -0.446002,0.9999999 -1,1 l -2,5e-7 c -0.553998,1e-7 -1,-0.446002 -1,-1 V 4 C 7,3.446001 7.446002,3 8,3 Z"
     sodipodi:nodetypes="ccssssssccccccsscccsssssssssccsssssc" /></svg>
